# AST/ASF file generated using VICON BodyLanguage
# -----------------------------------------------
:version 1.10
:name VICON
:units
  mass 1.0
  length 0.45
  angle deg
:documentation
   .ast/.asf automatically generated from VICON data using
   VICON BodyBuilder and BodyLanguage model FoxedUp or BRILLIANT.MOD
:root
   order TX TY TZ RX RY RZ
   axis XYZ
   position 0 0 0  
   orientation 0 0 0 
:bonedata
  begin
     id 1 
     name lhipjoint
     direction 0.677091 -0.635792 0.370561 
     length 2.74323 
     axis 0 0 0  XYZ
  end
  begin
     id 2 
     name lfemur
     direction 0.34202 -0.939693 0  
     length 7.44995  
     axis 0 0 20  XYZ
    dof rx ry rz
    limits (-160.0 20.0)
           (-70.0 70.0)
           (-60.0 70.0)
  end
  begin
     id 3 
     name ltibia
     direction 0.34202 -0.939693 0   
     length 7.34467   
     axis 0 0 20   XYZ
    dof rx
    limits (-10.0 170.0)
  end
  begin
     id 4 
     name lfoot
     direction 0.101953 -0.280114 0.954537   
     length 1.72105   
     axis -90 7.62852e-016 20   XYZ
    dof rx rz
    limits (-45.0 90.0)
           (-70.0 20.0)
  end
  begin
     id 5 
     name ltoes
     direction 1.53537e-011 -4.21915e-011 1   
     length 0.865872   
     axis -90 7.62852e-016 20   XYZ
    dof rx
    limits (-90.0 20.0)
  end
  begin
     id 6 
     name rhipjoint
     direction -0.695735 -0.620586 0.361699   
     length 2.81045  
     axis 0 0 0  XYZ 
  end
  begin
     id 7 
     name rfemur
     direction -0.34202 -0.939693 0   
     length 7.29387   
     axis 0 0 -20   XYZ
    dof rx ry rz
    limits (-160.0 20.0)
           (-70.0 70.0)
           (-70.0 60.0)
  end
  begin
     id 8 
     name rtibia
     direction -0.34202 -0.939693 0   
     length 7.44935   
     axis 0 0 -20   XYZ
    dof rx
    limits (-10.0 170.0)
 end
 begin
     id 9 
     name rfoot
     direction -0.104163 -0.286184 0.952496   
     length 1.77731  
     axis -90 -7.62852e-016 -20   XYZ
    dof rx rz
    limits (-45.0 90.0)
           (-20.0 70.0)
  end
  begin
     id 10 
     name rtoes
     direction -1.5355e-011 -4.21888e-011 1   
     length 0.892424   
     axis -90 -7.62852e-016 -20   XYZ
    dof rx
    limits (-90.0 20.0)
  end
  begin
     id 11 
     name lowerback
     direction 0.0100202 0.997226 -0.0737589   
     length 2.16892   
     axis 0 0 0   XYZ
    dof rx ry rz
    limits (-20.0 45.0)
           (-30.0 30.0)
           (-30.0 30.0)
  end
  begin
     id 12 
     name upperback
     direction 0.00432398 0.999988 -0.00215019   
     length 2.17326   
     axis 0 0 0   XYZ
    dof rx ry rz
    limits (-20.0 45.0)
           (-30.0 30.0)
           (-30.0 30.0)
  end
  begin
     id 13 
     name thorax
     direction -0.00195047 0.999485 0.0320434   
     length 2.18139   
     axis 0 0 0   XYZ
    dof rx ry rz
    limits (-20.0 45.0)
           (-30.0 30.0)
           (-30.0 30.0)
  end
  begin
     id 14 
     name lowerneck
     direction 0.00782762 0.986241 0.165128   
     length 1.88415   
     axis 0 0 0   XYZ
    dof rx ry rz
    limits (-20.0 45.0)
           (-30.0 30.0)
           (-30.0 30.0)
  end
  begin
     id 15 
     name upperneck
     direction 0.00988667 0.981098 -0.193258   
     length 1.9242   
     axis 0 0 0   XYZ
    dof rx ry rz
    limits (-20.0 45.0)
           (-30.0 30.0)
           (-30.0 30.0)
  end
  begin
     id 16
     name head
     direction 0.00252199 0.996513 -0.0833958  
     length 1.93887  
     axis 0 0 0   XYZ
    dof rx ry rz
    limits (-20.0 45.0)
           (-30.0 30.0)
           (-30.0 30.0)
  end
  begin
     id 17 
     name lclavicle
     direction 0.929492 0.368193 -0.0218667  
     length 3.5955  
     axis 0 0 0   XYZ
    dof ry rz
    limits (-20.0 10.0)
           (0.0 20.0)
  end
  begin
     id 18 
     name lhumerus
     direction 1 -4.48972e-011 1.41911e-027   
     length 5.2795   
     axis 180 -30 -90   XYZ
    dof rx ry rz
    limits (-60.0 90.0)
           (-90.0 90.0)
           (-90.0 90.0)
  end
  begin
     id 19
     name lradius
     direction 1 -4.48963e-011 7.05772e-027   
     length 3.53504   
     axis 180 -30 -90   XYZ
    dof rx
    limits (-10.0 170.0)
  end
  begin
     id 20
     name lwrist
     direction 1 -4.48957e-011 9.54866e-027   
     length 1.76752   
     axis -7.69462e-015 90 90   XYZ
    dof ry
    limits (-180.0 0.0)
 end
  begin
     id 21 
     name lhand
     direction 1 -4.48979e-011 1.90973e-026   
     length 0.667948   
     axis -1.21857e-014 90 90   XYZ
    dof rx rz
    limits (-90.0 90.0)
           (-45.0 45.0)
  end
  begin
     id 22 
     name lfingers
     direction 1 -4.48987e-011 3.81946e-026   
     length 0.538517   
     axis -2.43714e-014 90 90   XYZ
    dof rx
    limits (0.0 90.0)
  end
  begin
     id 23
     name lthumb
     direction 0.707107 -6.34962e-011 0.707107   
     length 0.773206   
     axis -90 45 2.85299e-015   XYZ
    dof rx rz
    limits (-45.0 45.0)
           (-45.0 45.0)
  end
  begin
     id 24 
     name rclavicle
     direction -0.898763 0.414256 -0.143584   
     length 3.5176  
     axis 0 0 0   XYZ 
    dof ry rz
    limits (-10.0 20.0)
           (-20.0 0.0)
  end
  begin
     id 25 
     name rhumerus
     direction -1 -4.48971e-011 1.129e-027  
     length 5.25035   
     axis 180 30 90   XYZ
    dof rx ry rz
    limits (-90.0 60.0)
           (-90.0 90.0)
           (-90.0 90.0)
  end
  begin
     id 26 
     name rradius
     direction -1 -4.48955e-011 6.34664e-027   
     length 3.58884   
     axis 180 30 90   XYZ
    dof rx
    limits (-10.0 170.0)
  end
  begin
     id 27 
     name rwrist
     direction -1 -4.48966e-011 9.54866e-027   
     length 1.79442   
     axis -7.69462e-015 -90 -90   XYZ
    dof ry
    limits (-180.0 0.0)
  end
  begin
     id 28
     name rhand
     direction -1 -4.48973e-011 1.90973e-026   
     length 0.779235   
     axis -1.21857e-014 -90 -90   XYZ
    dof rx rz
    limits (-90.0 90.0)
           (-45.0 45.0)
  end
  begin
     id 29
     name rfingers
     direction -1 -4.48984e-011 3.81946e-026   
     length 0.62824   
     axis -2.43714e-014 -90 -90   XYZ
    dof rx
    limits (0.0 90.0)
  end
  begin
     id 30
     name rthumb
     direction -0.707107 -6.34968e-011 0.707107   
     length 0.90203   
     axis -90 -45 -2.85299e-015   XYZ
    dof rx rz
    limits (-45.0 45.0)
           (-45.0 45.0)
  end
:hierarchy
  begin
    root lhipjoint rhipjoint lowerback
    lhipjoint lfemur
    lfemur ltibia
    ltibia lfoot
    lfoot ltoes
    rhipjoint rfemur
    rfemur rtibia
    rtibia rfoot
    rfoot rtoes
    lowerback upperback
    upperback thorax
    thorax lowerneck lclavicle rclavicle
    lowerneck upperneck
    upperneck head
    lclavicle lhumerus
    lhumerus lradius
    lradius lwrist
    lwrist lhand lthumb
    lhand lfingers
    rclavicle rhumerus
    rhumerus rradius
    rradius rwrist
    rwrist rhand rthumb
    rhand rfingers
  end

#!OML:ASF I:\Random Stuff\random\construction\7_22_03\Session 2\subj1.ASF
:FULLY-SPECIFIED
:DEGREES
349
root -9.85946 17.7613 -6.17751 -179.989 104.398 -197.678
lowerback 12.7197 1.68463 -4.15568
upperback 5.15011 1.86795 -3.20844
thorax -1.73522 1.00674 -1.26638
lowerneck -18.401 4.85639 4.39605
upperneck 39.2637 8.98124 -3.59959
head 18.1598 4.08203 -0.491227
rclavicle 3.02153e-014 -3.33958e-014
rhumerus -30.0034 35.8513 -98.4422
rradius 76.8932
rwrist -3.36495
rhand -46.6562 32.6114
rfingers 7.12502
rthumb -19.3768 3.55684
lclavicle 3.02153e-014 -3.33958e-014
lhumerus 5.88561 -29.4221 87.5336
lradius 47.7387
lwrist -1.42509
lhand -31.5559 44.748
lfingers 7.12502
lthumb -4.81995 74.6731
rfemur -19.0071 6.55404 14.2448
rtibia -5.22804e-014
rfoot 3.37816 -7.70571
rtoes -25.2742
lfemur -29.8815 -2.79261 -9.59854
ltibia 26.2195
lfoot -15.6433 14.0826
ltoes -27.0758
350
root -9.85964 17.7613 -6.17737 -180.017 104.396 -197.699
lowerback 12.7178 1.67307 -4.16123
upperback 5.15033 1.85226 -3.21257
thorax -1.73384 0.998986 -1.26529
lowerneck -18.3988 4.83837 4.36745
upperneck 39.2851 8.96353 -3.5878
head 18.1676 4.07255 -0.484491
rclavicle 2.22639e-014 -2.22639e-014
rhumerus -29.8776 35.9197 -98.4356
rradius 76.7434
rwrist -3.16767
rhand -46.8507 32.9571
rfingers 7.12502
rthumb -19.5637 3.92139
lclavicle 2.22639e-014 -2.22639e-014
lhumerus 5.87015 -29.3678 87.5272
lradius 47.7524
lwrist -1.42642
lhand -31.5569 44.7402
lfingers 7.12502
lthumb -4.82092 74.6653
rfemur -18.9967 6.55883 14.2513
rtibia 4.90004e-014
rfoot 3.37067 -7.71648
rtoes -25.3589
lfemur -29.8768 -2.84982 -9.57637
ltibia 26.2338
lfoot -15.6403 14.1393
ltoes -27.1134
351
root -9.86022 17.7617 -6.1762 -180.044 104.44 -197.72
lowerback 12.7134 1.67307 -4.19101
upperback 5.14176 1.8482 -3.20924
thorax -1.74129 0.996536 -1.2446
lowerneck -18.4169 4.83651 4.34355
upperneck 39.3144 8.97531 -3.58946
head 18.1888 4.07272 -0.477799
rclavicle 2.38542e-014 1.74931e-014
rhumerus -29.7439 36.0069 -98.4544
rradius 76.4461
rwrist -3.03476
rhand -46.9905 33.1955
rfingers 7.12502
rthumb -19.6982 4.1735
lclavicle 2.38542e-014 1.74931e-014
lhumerus 5.82333 -29.3257 87.5225
lradius 47.7964
lwrist -1.3755
lhand -31.5765 44.6798
lfingers 7.12502
lthumb -4.83986 74.6045
rfemur -19.0057 6.61015 14.2625
rtibia -2.14687e-014
rfoot 3.37802 -7.73754
rtoes -25.4171
lfemur -29.8798 -2.73858 -9.58734
ltibia 26.253
lfoot -15.6238 14.0929
ltoes -27.1614
352
root -9.86237 17.7611 -6.17418 -180.07 104.515 -197.737
lowerback 12.7354 1.6933 -4.22215
upperback 5.12443 1.86804 -3.20847
thorax -1.77236 1.00618 -1.23033
lowerneck -18.4573 4.83321 4.35004
upperneck 39.3402 8.99127 -3.63633
head 18.2201 4.07226 -0.495613
rclavicle -4.77083e-015 2.38542e-014
rhumerus -29.591 36.0409 -98.4735
rradius 75.9618
rwrist -2.90738
rhand -47.0514 33.3261
rfingers 7.12502
rthumb -19.7567 4.31012
lclavicle -4.77083e-015 2.38542e-014
lhumerus 5.78688 -29.2478 87.5488
lradius 47.8077
lwrist -1.42542
lhand -31.5452 44.7568
lfingers 7.12502
lthumb -4.80956 74.6822
rfemur -19.0238 6.69297 14.2726
rtibia 8.94531e-015
rfoot 3.39936 -7.72448
rtoes -25.3612
lfemur -29.8639 -2.61221 -9.58901
ltibia 26.271
lfoot -15.6174 14.0188
ltoes -26.9961
353
root -9.86377 17.76 -6.17342 -180.098 104.51 -197.743
lowerback 12.772 1.70271 -4.21424
upperback 5.10861 1.87762 -3.21174
thorax -1.8085 1.0114 -1.24116
lowerneck -18.4837 4.78945 4.34533
upperneck 39.3792 8.93919 -3.65329
head 18.2476 4.04861 -0.512384
rclavicle 2.22639e-014 -1.43125e-014
rhumerus -29.4057 35.9916 -98.4427
rradius 75.3555
rwrist -2.64632
rhand -47.0452 33.3819
rfingers 7.12502
rthumb -19.7507 4.36535
lclavicle 2.22639e-014 -1.43125e-014
lhumerus 5.77816 -29.1841 87.5993
lradius 47.7694
lwrist -1.55923
lhand -31.4472 45.043
lfingers 7.12502
lthumb -4.71501 74.9706
rfemur -19.0007 6.69696 14.2793
rtibia 9.83984e-015
rfoot 3.40804 -7.70426
rtoes -25.3933
lfemur -29.8468 -2.64707 -9.57581
ltibia 26.2918
lfoot -15.6218 14.0103
ltoes -26.8595
354
root -9.86331 17.7595 -6.17335 -180.128 104.454 -197.742
lowerback 12.7977 1.68313 -4.22073
upperback 5.08747 1.84786 -3.1895
thorax -1.84521 0.996492 -1.21137
lowerneck -18.4368 4.74728 4.30005
upperneck 39.4078 8.90446 -3.6605
head 18.2472 4.02959 -0.516296
rclavicle -2.38542e-014 6.83819e-014
rhumerus -29.205 35.9506 -98.3754
rradius 74.6758
rwrist -2.29034
rhand -46.9794 33.1219
rfingers 7.12502
rthumb -19.6875 4.09889
lclavicle -2.38542e-014 6.83819e-014
lhumerus 5.73779 -29.1177 87.6647
lradius 47.7229
lwrist -1.54726
lhand -31.3982 45.1687
lfingers 7.12502
lthumb -4.66767 75.0972
rfemur -18.9436 6.65006 14.2849
rtibia -1.22253e-014
rfoot 3.38917 -7.71839
rtoes -25.3329
lfemur -29.8361 -2.64941 -9.59614
ltibia 26.3145
lfoot -15.6185 13.9539
ltoes -26.905
355
root -9.86298 17.7588 -6.17324 -180.249 104.446 -197.826
lowerback 12.8171 1.67134 -4.20932
upperback 5.06679 1.83068 -3.16417
thorax -1.87789 0.987791 -1.18994
lowerneck -18.343 4.71409 4.2844
upperneck 39.3694 8.89712 -3.74756
head 18.2057 4.01608 -0.558478
rclavicle -2.46493e-014 7.31528e-014
rhumerus -28.9135 35.903 -98.2729
rradius 73.9121
rwrist -2.08126
rhand -46.8401 32.5399
rfingers 7.12502
rthumb -19.5535 3.50322
lclavicle -2.46493e-014 7.31528e-014
lhumerus 5.69705 -29.1149 87.694
lradius 47.6809
lwrist -1.41581
lhand -31.4037 45.0168
lfingers 7.12502
lthumb -4.67293 74.9453
rfemur -18.8942 6.65054 14.3098
rtibia -5.46658e-015
rfoot 3.36668 -7.74517
rtoes -25.1113
lfemur -29.807 -2.5005 -9.62475
ltibia 26.3365
lfoot -15.6281 13.7947
ltoes -26.9148
356
root -9.86383 17.7579 -6.1732 -180.387 104.46 -197.941
lowerback 12.8404 1.69022 -4.14479
upperback 5.04776 1.85964 -3.17098
thorax -1.90886 1.00295 -1.23854
lowerneck -18.2746 4.68812 4.40216
upperneck 39.3222 8.89442 -3.94124
head 18.184 4.00911 -0.671161
rclavicle -5.56597e-015 5.08889e-014
rhumerus -28.5487 35.7407 -98.1174
rradius 73.1424
rwrist -2.05946
rhand -46.3988 31.5167
rfingers 7.12502
rthumb -19.1292 2.43739
lclavicle -5.56597e-015 5.08889e-014
lhumerus 5.67011 -29.2796 87.6801
lradius 47.6592
lwrist -1.21215
lhand -30.9405 44.6796
lfingers 7.12502
lthumb -4.22568 74.6174
rfemur -18.8737 6.673 14.3435
rtibia -1.17283e-014
rfoot 3.37162 -7.74913
rtoes -25.0668
lfemur -29.7916 -2.41322 -9.61454
ltibia 26.3626
lfoot -15.6582 13.7131
ltoes -26.8526
357
root -9.86468 17.7573 -6.17292 -180.399 104.46 -197.94
lowerback 12.8626 1.69939 -4.11664
upperback 5.01541 1.87051 -3.17693
thorax -1.95392 1.00882 -1.26357
lowerneck -18.2287 4.6898 4.521
upperneck 39.3368 8.92825 -4.09414
head 18.2036 4.02164 -0.756361
rclavicle 3.10104e-014 -1.59028e-014
rhumerus -28.2732 35.6164 -97.9736
rradius 72.4851
rwrist -2.19818
rhand -45.492 29.9129
rfingers 7.12502
rthumb -18.257 0.749699
lclavicle 3.10104e-014 -1.59028e-014
lhumerus 5.58789 -29.3517 87.716
lradius 47.6233
lwrist -1.10445
lhand -30.0089 44.4159
lfingers 7.12502
lthumb -3.32607 74.3697
rfemur -18.8654 6.68005 14.3479
rtibia 1.12313e-014
rfoot 3.39754 -7.74046
rtoes -25.191
lfemur -29.8039 -2.40828 -9.61367
ltibia 26.4006
lfoot -15.674 13.7009
ltoes -26.8804
358
root -9.86653 17.7566 -6.1719 -180.226 104.554 -197.788
lowerback 12.8315 1.74577 -4.1524
upperback 4.95769 1.92324 -3.19273
thorax -1.99855 1.03449 -1.26788
lowerneck -18.193 4.66437 4.52365
upperneck 39.4044 8.89208 -4.06222
head 18.2284 4.01459 -0.750162
rclavicle -3.65764e-014 1.27222e-014
rhumerus -28.0451 35.5736 -97.8553
rradius 71.8673
rwrist -2.55836
rhand -44.6047 28.4541
rfingers 7.12502
rthumb -17.4033 -0.786801
lclavicle -3.65764e-014 1.27222e-014
lhumerus 5.51257 -29.3561 87.7722
lradius 47.5462
lwrist -1.17749
lhand -29.4176 44.3257
lfingers 7.12502
lthumb -2.75505 74.2876
rfemur -18.9269 6.77565 14.3033
rtibia 3.88624e-014
rfoot 3.42943 -7.73284
rtoes -25.2296
lfemur -29.8352 -2.30604 -9.65024
ltibia 26.4477
lfoot -15.6629 13.6973
ltoes -27.0936
359
root -9.87084 17.7557 -6.16968 -179.943 104.799 -197.577
lowerback 12.7366 1.87433 -4.23519
upperback 4.89402 2.08124 -3.22529
thorax -2.01659 1.11154 -1.27647
lowerneck -18.2202 4.61067 4.49245
upperneck 39.4856 8.78437 -3.94489
head 18.2636 3.98421 -0.711678
rclavicle -5.56597e-015 6.52014e-014
rhumerus -27.7363 35.5888 -97.7003
rradius 71.1332
rwrist -2.89814
rhand -44.4689 28.4747
rfingers 7.12502
rthumb -17.2726 -0.777699
lclavicle -5.56597e-015 6.52014e-014
lhumerus 5.5547 -29.4971 87.7608
lradius 47.4631
lwrist -1.17937
lhand -29.2649 44.2896
lfingers 7.12502
lthumb -2.60756 74.2534
rfemur -19.097 7.0168 14.2378
rtibia 2.80286e-014
rfoot 3.49164 -7.70448
rtoes -25.4339
lfemur -29.8829 -2.13354 -9.66639
ltibia 26.4929
lfoot -15.6364 13.78
ltoes -27.1956
